<?xml version="1.0" encoding="UTF-8" standalone="no"?>
<!DOCTYPE svg PUBLIC "-//W3C//DTD SVG 1.1//EN" "http://www.w3.org/Graphics/SVG/1.1/DTD/svg11.dtd">
<svg xmlns="http://www.w3.org/2000/svg" xmlns:xlink="http://www.w3.org/1999/xlink" version="1.1" width="380.94609pt" height="344.44444pt" viewBox="0 0 380.94609 344.44444">
<g enable-background="new">
<g id="Layer-1" data-name="P">
</g>
<g id="Layer-1" data-name="P">
<clipPath id="cp0">
<path transform="matrix(2.7777777,0,0,-2.7777777,0,344.44444)" d="M 32.3208 32.3208 L 104.819828 32.3208 L 104.819828 91.6792 L 32.3208 91.6792 Z "/>
</clipPath>
<g clip-path="url(#cp0)">
<symbol id="font_1_1">
<path d="M .45166017 .23925781 C .45263673 .24055989 .45540367 .23990886 .45996095 .23730469 C .46484376 .23470052 .46907554 .23144531 .47265626 .22753906 C .4765625 .22395833 .47802735 .22151692 .47705079 .22021485 C .44970704 .1821289 .42220054 .14648438 .39453126 .11328125 C .3736979 .088541667 .35791017 .07014974 .34716798 .05810547 C .3445638 .05517578 .34033204 .05029297 .33447267 .04345703 C .32861329 .036946615 .32389323 .03173828 .3203125 .027832032 C .31705729 .024251303 .31282554 .019856772 .3076172 .0146484379 C .30240885 .0094401049 .29736329 .0048828127 .29248048 .0009765625 C .2915039 0 .28955079 .00032552085 .2866211 .001953125 C .28076173 .0016276041 .26985679 .0065104167 .25390626 .016601563 C .23958333 .026367188 .22916667 .034505208 .22265625 .041015626 C .21289063 .05078125 .20800781 .057617189 .20800781 .061523439 C .20833333 .0764974 .21386719 .1015625 .22460938 .13671875 C .2311198 .15755208 .24527996 .1977539 .26708985 .25732423 C .2709961 .26708985 .27652995 .28173829 .2836914 .30126954 C .29085288 .3211263 .29638673 .3359375 .30029298 .34570313 C .27815757 .3059896 .25960288 .27376304 .2446289 .24902344 C .2163086 .20117188 .18945313 .15690105 .1640625 .11621094 C .16113281 .11165365 .15527344 .10221354 .14648438 .087890628 C .13802083 .07356771 .13151042 .06282552 .12695313 .055664064 C .12272135 .048828126 .11669922 .040039064 .10888672 .029296875 C .10107422 .018554688 .09358724 .009114583 .08642578 .0009765625 C .08544922 0 .08300781 .0006510417 .07910156 .0029296876 C .06608073 .006184896 .049479169 .014973958 .029296875 .029296875 C .0087890629 .043945314 0 .055826826 .0029296876 .064941409 C .0133463549 .095214847 .028971354 .14095052 .049804689 .20214844 C .14322917 .47395835 .21126302 .6665039 .25390626 .77978518 C .25553385 .7840169 .26236979 .7828776 .27441407 .7763672 C .28678385 .76985678 .29622398 .76416018 .30273438 .75927737 C .32845054 .74072268 .339681 .7270508 .33642579 .7182617 C .3243815 .68636068 .30696617 .6385091 .2841797 .57470706 C .2467448 .4695638 .19156902 .3111979 .118652347 .099609378 C .1258138 .1110026 .13346355 .1233724 .14160156 .13671875 C .16601563 .17708333 .19189453 .22086589 .21923828 .2680664 C .28694663 .3852539 .33789063 .47314454 .3720703 .5317383 C .37272135 .5336914 .3736979 .5364583 .375 .54003909 C .3766276 .5436198 .37776695 .54622396 .37841798 .54785159 C .38004557 .5520833 .38671876 .55094406 .3984375 .5444336 C .41048179 .53792318 .41992188 .5320638 .4267578 .52685549 C .45247398 .5083008 .4638672 .4946289 .4609375 .48583985 C .44889323 .4539388 .4305013 .40625 .40576173 .34277345 C .38102214 .2796224 .36279298 .23209636 .35107423 .20019531 C .3334961 .15364583 .31966148 .11425781 .3095703 .08203125 C .30924479 .080729167 .30745445 .07519531 .30419923 .06542969 C .300944 .055664064 .29866538 .048177083 .29736329 .04296875 C .30029298 .046875 .30485026 .052571615 .31103517 .060058595 C .31754557 .06754557 .32242839 .07307943 .3256836 .076660159 C .3273112 .07861328 .33365885 .08642578 .34472657 .100097659 C .35579429 .11376953 .3642578 .124186199 .3701172 .13134766 C .39876304 .16682942 .425944 .20279949 .45166017 .23925781 Z "/>
</symbol>
<symbol id="font_1_2">
<path d="M .24365235 .23925781 C .2446289 .24055989 .24739583 .23990886 .25195313 .23730469 C .25683595 .23470052 .26106773 .23144531 .26464845 .22753906 C .2685547 .22395833 .27001954 .22151692 .26904298 .22021485 C .24365235 .1850586 .21598308 .14941406 .18603516 .11328125 C .15966797 .08203125 .14404297 .06363932 .13916016 .05810547 C .13720703 .056152345 .13297527 .051432294 .12646485 .043945314 C .11995443 .036458333 .11507162 .03108724 .111816409 .027832032 C .10888672 .024576823 .104654949 .020182291 .099121097 .0146484379 C .09391276 .0094401049 .08886719 .0048828127 .083984378 .0009765625 C .08300781 0 .081217449 .00032552085 .07861328 .001953125 C .072753909 .0016276041 .061848958 .0065104167 .045898439 .016601563 C .034179689 .024088541 .023763022 .032389326 .0146484379 .041503908 C .0048828127 .05126953 0 .057942708 0 .061523439 C .00032552085 .0764974 .005859375 .1015625 .016601563 .13671875 C .025065104 .16373699 .0390625 .2039388 .05859375 .25732423 C .071614589 .29215495 .090657558 .3421224 .115722659 .40722657 C .14111328 .47233073 .15917969 .51920577 .16992188 .54785159 C .17154949 .5520833 .17838542 .55094406 .19042969 .5444336 C .20247396 .53792318 .21191406 .5320638 .21875 .52685549 C .24446614 .5083008 .25585938 .4946289 .2529297 .48583985 C .24088542 .4539388 .22249349 .40625 .1977539 .34277345 C .17301433 .2796224 .15478516 .23209636 .1430664 .20019531 C .12548828 .15364583 .11165365 .11425781 .1015625 .08203125 C .10123698 .080729167 .09944662 .07519531 .096191409 .06542969 C .092936199 .055664064 .090657558 .048177083 .08935547 .04296875 C .09261068 .046875 .09733073 .052571615 .103515628 .060058595 C .10970052 .06754557 .11442057 .07307943 .11767578 .076660159 C .11930338 .07861328 .12565105 .08642578 .13671875 .100097659 C .14778646 .11376953 .15625 .124186199 .16210938 .13134766 C .1907552 .16682942 .2179362 .20279949 .24365235 .23925781 M .32470704 .6582031 C .3289388 .6376953 .32503257 .6193034 .31298829 .60302737 C .30419923 .5916341 .29508464 .5859375 .28564454 .5859375 C .27555339 .585612 .261556 .5911458 .24365235 .60253909 C .22509766 .6142578 .21044922 .6266276 .19970703 .63964846 C .19059246 .6510417 .18587239 .6624349 .18554688 .6738281 C .18522136 .68098959 .18636067 .69108077 .18896485 .70410159 C .19124349 .71516928 .19401042 .7242839 .19726563 .7314453 C .20084636 .7399089 .20442708 .74576827 .20800781 .74902346 C .20996094 .75065109 .21240235 .75113937 .21533203 .7504883 C .2211914 .75179037 .23030599 .74934896 .24267578 .74316409 C .26285807 .73339846 .28125 .72005209 .29785157 .703125 C .31315104 .6875 .32210288 .67252609 .32470704 .6582031 Z "/>
</symbol>
<symbol id="font_1_4">
<path d="M .5148112 .69628909 C .51936849 .67871096 .51985678 .65559896 .51627609 .6269531 C .5100911 .5748698 .49414063 .51904299 .4684245 .45947267 C .44173179 .3972982 .410319 .34554038 .37418623 .30419923 C .3334961 .2566732 .29296879 .23258464 .2526042 .2319336 C .22786458 .23160808 .20133464 .2397461 .17301433 .25634767 L .0851237 .0029296876 C .08414713 0 .07633464 .0021158856 .061686204 .009277344 C .046712247 .016113282 .03255209 .025227866 .019205735 .036621095 C .005533859 .048014326 .000000004967054 .057291669 .0026041717 .064453128 C .007812505 .0797526 .015787766 .10270182 .026529953 .13330078 C .03694662 .16389974 .04475912 .1866862 .049967454 .20166016 C .14729817 .48388673 .21516927 .6764323 .25358076 .7792969 C .25520835 .7835286 .26204429 .78238937 .27408857 .7758789 C .28645835 .76936849 .29589848 .7636719 .30240888 .75878909 C .32812504 .7402344 .33935548 .7265625 .33610029 .71777346 C .32633467 .69140627 .31494145 .65999349 .3019206 .62353518 C .31982426 .6590169 .3372396 .69091799 .3541667 .7192383 C .35416667 .7195638 .35579429 .72249349 .3590495 .72802737 C .3623047 .7335612 .36458335 .73746749 .36588545 .7397461 C .36751304 .7423503 .3701172 .74641928 .37369795 .7519531 C .37760417 .757487 .38085938 .76171877 .38346357 .76464846 C .38639323 .7679036 .38964845 .7713216 .3932292 .77490237 C .3968099 .7788086 .40039063 .7815755 .40397138 .7832031 C .4075521 .78515627 .4111328 .7862956 .41471357 .7866211 C .42089845 .7895508 .43245445 .78499349 .44938154 .7729492 C .48616538 .74886068 .5079753 .7233073 .5148112 .69628909 M .44059248 .7495117 C .43961589 .7504883 .43815104 .75179037 .43619795 .75341799 C .4345703 .7550456 .43326823 .7561849 .4322917 .75683596 C .43391929 .7552083 .4366862 .7527669 .44059248 .7495117 M .4347331 .6850586 C .43701173 .7058919 .43684898 .7242839 .4342448 .7402344 C .43391929 .74121096 .43359376 .742513 .43326826 .7441406 C .43294273 .74609377 .4326172 .7477214 .4322917 .74902346 C .43196617 .75065109 .43164063 .7521159 .43131513 .75341799 C .4309896 .75374349 .4305013 .75472006 .42985029 .75634768 C .42952476 .7579753 .42936198 .75895187 .429362 .75927737 C .42936198 .75960287 .42919923 .7597656 .42887373 .7597656 C .4285482 .7597656 .4283854 .7599284 .42838545 .7602539 L .4264323 .76220706 C .4248047 .76383468 .42333985 .7651367 .42203779 .7661133 C .42171226 .7657878 .42122398 .7652995 .42057295 .76464846 C .41992188 .76432296 .4194336 .7639974 .4191081 .7636719 C .41455079 .75911459 .40771485 .7501628 .39860029 .7368164 C .39111329 .72509768 .3836263 .7130534 .37613935 .7006836 C .36897788 .6883138 .36149089 .6746419 .3536784 .65966799 C .3461914 .64469406 .34016929 .632487 .335612 .6230469 C .33105473 .6139323 .32421879 .59977218 .3151042 .5805664 C .30631513 .5616862 .300293 .5489909 .29703779 .54248049 C .2911784 .52978518 .277181 .5001628 .2550456 .45361329 C .23323567 .4070638 .21614583 .3712565 .20377605 .3461914 C .20149739 .339681 .19824219 .33007813 .19401042 .3173828 C .18977864 .3046875 .18652344 .2952474 .1842448 .2890625 C .20182292 .29134117 .2163086 .2957357 .22770183 .3022461 C .26025395 .32014976 .29215498 .35205079 .32340498 .39794923 C .35205079 .4399414 .37679038 .48779298 .39762373 .5415039 C .4181315 .59521487 .4305013 .6430664 .4347331 .6850586 M .44108076 .74902346 C .44596354 .7451172 .45133464 .7413737 .45719404 .73779299 C .45035807 .7420247 .44498698 .74576827 .44108076 .74902346 Z "/>
</symbol>
<symbol id="font_1_3">
<path d="M .16194661 .5670573 C .18929036 .5546875 .21223958 .5362956 .23079427 .51188156 C .24934896 .48779298 .2626953 .4617513 .27083335 .4337565 C .27897135 .40576173 .2828776 .37646485 .2825521 .34586589 C .28190104 .26057945 .26204429 .18017578 .22298177 .104654949 C .20019531 .060384115 .17626953 .029947916 .15120442 .0133463549 C .13395183 .002278646 .11735026 0 .101399738 .0065104167 C .07600911 .016927084 .05387369 .033203126 .03499349 .055338544 C .010253905 .08365885 -.0000000012417635 .123535159 .0042317698 .17496746 C .007486978 .2133789 .01660156 .25504557 .03157552 .29996745 C .059244787 .38069663 .1015625 .44856773 .15852864 .50358077 C .16471355 .5094401 .18098958 .5026042 .20735677 .4830729 C .21126302 .48014323 .21744792 .4749349 .22591146 .4674479 C .21386719 .5055339 .19482422 .5336914 .16878255 .5519206 C .16422527 .5551758 .16031902 .5595703 .1570638 .5651042 C .1554362 .5680339 .15608724 .56901046 .15901692 .5680339 C .15966797 .5680339 .16064453 .5677083 .16194661 .5670573 M .18929036 .16227214 C .22444661 .22477214 .24153646 .29508464 .24055989 .37320964 C .23990886 .394694 .23779297 .4153646 .23421224 .43522135 C .18343099 .3841146 .14485677 .32291667 .11848958 .2516276 C .10546875 .21744792 .096354167 .18261719 .09114583 .14713542 C .08561198 .1110026 .08479818 .08105469 .08870442 .057291669 C .099121097 .061523439 .11279297 .07096354 .12972005 .08561198 C .1508789 .10449219 .17073567 .13004558 .18929036 .16227214 Z "/>
</symbol>
<use xlink:href="#font_1_1" transform="matrix(100,0,0,-100,107.75824,210.3407)"/>
<use xlink:href="#font_1_2" transform="matrix(100,0,0,-100,145.55191,210.3407)"/>
<use xlink:href="#font_1_4" transform="matrix(100,0,0,-100,152.86296,233.28992)"/>
<use xlink:href="#font_1_4" transform="matrix(100,0,0,-100,187.82297,233.28992)"/>
<use xlink:href="#font_1_3" transform="matrix(100,0,0,-100,235.12023,210.55229)"/>
</g>
</g>
</g>
</svg>
