<?xml version="1.0" standalone="no"?>
<!DOCTYPE svg PUBLIC "-//W3C//DTD SVG 20010904//EN"
 "http://www.w3.org/TR/2001/REC-SVG-20010904/DTD/svg10.dtd">
<svg version="1.0" xmlns="http://www.w3.org/2000/svg"
 width="450.000000pt" height="451.000000pt" viewBox="0 0 450.000000 451.000000"
 preserveAspectRatio="xMidYMid meet">
<metadata>
Created by potrace 1.10, written by Peter Selinger 2001-2011
</metadata>
<g transform="translate(0.000000,451.000000) scale(0.050000,-0.050000)"
fill="#0000a0" stroke="none">
<path d="M0 8950 l0 -50 4500 0 4500 0 0 50 0 50 -4500 0 -4500 0 0 -50z"/>
<path d="M4150 7097 c-88 -64 -197 -214 -229 -317 -16 -49 -35 -99 -43 -110
-32 -45 -16 -236 25 -294 52 -74 42 -115 -43 -170 -39 -25 -81 -55 -95 -66
-13 -11 -29 -20 -36 -18 -6 1 -85 -41 -175 -95 -90 -53 -173 -94 -184 -90 -11
3 -13 0 -5 -9 8 -8 -5 -28 -30 -45 -106 -72 -423 -314 -478 -366 -33 -31 -70
-54 -83 -51 -12 2 -23 -5 -23 -16 -8 -131 -91 -63 -91 74 0 129 -85 256 -173
256 -32 1 -33 4 -7 22 22 15 3 17 -70 8 -55 -8 -103 -22 -107 -32 -3 -10 -19
-18 -34 -18 -43 0 -300 -159 -393 -244 -45 -41 -91 -69 -102 -62 -11 7 -14 2
-6 -10 7 -12 -1 -39 -19 -58 -232 -259 -293 -517 -180 -761 53 -113 193 -277
254 -296 58 -19 45 -86 -64 -321 -56 -120 -109 -236 -119 -258 -28 -63 -174
-532 -190 -610 -8 -38 -21 -79 -30 -90 -65 -88 -32 -245 75 -355 94 -97 137
-103 541 -83 237 12 302 20 224 27 l-110 11 80 15 c44 8 104 15 133 15 70 0
163 79 248 213 38 59 78 107 89 107 11 0 20 30 20 68 0 74 -46 180 -68 157 -8
-7 -8 2 -1 21 7 19 22 34 32 34 11 0 14 9 7 20 -7 11 5 20 26 20 35 0 37 -15
30 -255 l-8 -255 71 -80 c40 -44 86 -77 104 -74 17 4 26 -2 19 -12 -24 -40
884 -54 924 -15 6 6 -11 11 -38 12 -123 1 26 37 172 41 277 7 306 58 309 553
1 240 18 324 47 230 60 -193 225 -589 280 -670 20 -30 31 -55 24 -55 -7 0 14
-22 46 -50 33 -27 69 -50 80 -50 11 0 24 -11 29 -25 8 -25 1289 -49 1386 -26
22 5 81 46 130 90 49 44 95 81 102 81 15 0 139 -99 159 -126 43 -60 948 -81
1058 -24 93 48 160 151 160 247 0 86 -91 343 -122 343 -10 0 -18 14 -18 31 0
43 -173 307 -210 322 -16 6 -26 17 -21 25 5 8 -45 67 -110 131 -65 64 -112
127 -105 139 7 12 6 16 -2 9 -9 -8 -47 8 -86 35 -40 26 -78 48 -87 48 -8 0
-21 25 -29 55 -13 50 -16 51 -29 15 -14 -38 -16 -38 -30 7 -33 105 -20 282 25
323 147 137 286 540 186 540 -10 0 -23 23 -30 51 -7 28 -34 58 -60 68 -36 14
-54 44 -72 121 -46 190 -288 340 -377 233 -42 -50 -177 -82 -236 -55 -29 13
-48 28 -43 33 11 11 -71 112 -199 245 -46 49 -79 98 -72 109 8 13 3 15 -13 5
-20 -12 -23 -5 -15 28 8 28 4 42 -10 37 -24 -8 -95 54 -95 82 0 9 -18 33 -40
53 -58 53 -48 93 37 152 271 187 322 562 121 881 -196 308 -367 247 -606 -216
-101 -195 -114 -204 -215 -148 -84 48 -135 49 -395 9 -64 -10 -84 -8 -74 9 9
14 0 23 -25 23 -25 0 -43 18 -52 55 -8 30 -21 59 -30 65 -8 5 -53 71 -100 145
-155 248 -287 322 -411 232z m209 -231 c83 -161 276 -486 308 -520 18 -18 53
-16 154 13 284 79 322 76 420 -27 47 -51 97 -92 112 -92 43 0 160 -115 188
-185 15 -36 135 -195 269 -355 195 -234 549 -672 561 -695 1 -3 94 50 206 118
241 146 216 157 234 -110 l15 -216 -106 -107 -105 -107 40 -56 c57 -81 85
-238 85 -473 -1 -388 -68 -582 -344 -999 l-199 -301 -254 13 c-139 7 -449 13
-689 13 l-436 0 -67 146 c-221 485 -359 1137 -385 1820 -13 365 -21 380 -83
154 -131 -479 -177 -1290 -111 -1975 l11 -125 -496 0 c-273 0 -558 -6 -632
-13 l-135 -13 0 138 c0 177 46 457 121 746 112 431 50 419 -222 -43 l-103
-175 -58 34 c-59 35 -97 92 -49 74 43 -17 297 273 266 304 -5 4 -80 -59 -168
-141 l-161 -148 -68 108 c-184 291 -183 -80 2 -424 l76 -143 -73 -161 -73
-162 -136 0 c-86 -1 -132 6 -124 19 7 11 29 20 50 20 22 0 47 24 63 60 15 33
34 60 42 60 8 0 15 18 15 40 0 25 13 40 35 40 23 1 27 6 12 15 -13 8 -21 45
-18 82 7 84 -48 306 -71 292 -10 -6 -18 -74 -18 -150 0 -123 -10 -158 -84
-309 l-85 -170 -265 0 c-202 0 -266 6 -266 26 0 173 222 842 401 1209 76 157
139 294 139 306 0 42 80 176 127 212 27 20 120 132 206 247 428 574 1224 1197
1737 1360 119 38 119 38 31 114 -169 145 -191 250 -100 485 114 295 160 318
258 127z m1550 -26 c160 -316 135 -493 -90 -643 -164 -110 -211 -117 -230 -34
-16 75 -39 96 -104 97 -66 0 -62 11 138 395 204 390 187 380 286 185z m-3400
-1315 c-27 -257 -107 -326 -383 -332 -172 -3 -174 -4 -210 -65 -127 -218 -61
-398 201 -547 21 -12 16 -27 -22 -64 -27 -27 -53 -61 -58 -76 -29 -86 -238 55
-310 208 -153 330 108 739 608 952 192 82 191 83 174 -76z m-201 -517 c35 -13
45 -88 12 -88 -11 0 -20 11 -20 23 0 42 -25 -1 -28 -47 -1 -25 -22 -55 -47
-67 -25 -13 -39 -28 -32 -35 29 -30 -57 -36 -90 -7 -46 42 -56 173 -14 173 17
0 31 8 31 19 0 10 29 22 65 27 36 4 71 9 78 11 8 2 28 -2 45 -9z m4727 -234
c-16 -200 -117 -334 -252 -334 -58 0 -49 60 27 180 63 99 79 166 52 217 -25
45 -3 57 116 61 l67 2 -10 -126z m4 -995 c302 -305 621 -826 621 -1012 0 -4
-243 -7 -540 -7 l-540 0 0 222 c0 225 56 367 127 324 12 -8 14 2 7 22 -9 22
-6 29 9 20 13 -8 19 -3 13 14 -5 14 12 57 38 95 25 38 46 85 46 104 0 20 10
39 21 43 12 4 23 73 25 161 5 188 2 188 173 14z"/>
<path d="M4043 4346 c-117 -438 -296 -1480 -260 -1516 19 -19 107 22 107 50 0
17 18 33 40 36 37 5 40 19 37 220 -2 118 1 198 6 179 5 -19 18 -35 28 -35 27
0 23 25 -12 76 -29 41 -28 44 5 44 28 1 30 5 9 18 -15 9 -19 22 -9 28 10 7 21
100 23 208 6 246 37 597 65 729 35 160 7 134 -39 -37z"/>
<path d="M4908 4310 c-91 -362 33 -514 412 -505 311 7 310 13 -54 304 -342
273 -340 272 -358 201z"/>
</g>
</svg>
